<?xml version="1.0" encoding="UTF-8"?>
<svg width="50px" height="50px" viewBox="0 0 20 20" version="1.1" xmlns="http://www.w3.org/2000/svg" xmlns:xlink="http://www.w3.org/1999/xlink">
    <!-- Generator: Sketch 54.1 (76490) - https://sketchapp.com -->
    <title>ic_content_cut</title>
    <desc>Created with Sketch.</desc>
    <defs>
        <path d="M9.64,7.64 C9.87,7.14 10,6.59 10,6 C10,3.79 8.21,2 6,2 C3.79,2 2,3.79 2,6 C2,8.21 3.79,10 6,10 C6.59,10 7.14,9.87 7.64,9.64 L10,12 L7.64,14.36 C7.14,14.13 6.59,14 6,14 C3.79,14 2,15.79 2,18 C2,20.21 3.79,22 6,22 C8.21,22 10,20.21 10,18 C10,17.41 9.87,16.86 9.64,16.36 L12,14 L19,21 L22,21 L22,20 L9.64,7.64 L9.64,7.64 Z M6,8 C4.9,8 4,7.11 4,6 C4,4.89 4.9,4 6,4 C7.1,4 8,4.89 8,6 C8,7.11 7.1,8 6,8 L6,8 Z M6,20 C4.9,20 4,19.11 4,18 C4,16.89 4.9,16 6,16 C7.1,16 8,16.89 8,18 C8,19.11 7.1,20 6,20 L6,20 Z M12,12.5 C11.72,12.5 11.5,12.28 11.5,12 C11.5,11.72 11.72,11.5 12,11.5 C12.28,11.5 12.5,11.72 12.5,12 C12.5,12.28 12.28,12.5 12,12.5 L12,12.5 Z M19,3 L13,9 L15,11 L22,4 L22,3 L19,3 Z" id="path-1"></path>
        <rect id="path-3" x="0" y="0" width="50" height="50"></rect>
    </defs>
    <g id="🔘-Icons" stroke="none" stroke-width="1" fill="none" fill-rule="evenodd">
        <g id="Material_icons_library" transform="translate(-50.000000, -2499.000000)">
            <g id="ic_content_cut" transform="translate(48.000000, 2497.000000)">
                <mask id="mask-2" fill="white">
                    <use xlink:href="#path-1"></use>
                </mask>
                <g id="Mask"></g>
                <g id="Colors/Black" mask="url(#mask-2)">
                    <g transform="translate(-13.000000, -13.000000)">
                        <mask id="mask-4" fill="white">
                            <use xlink:href="#path-3"></use>
                        </mask>
                        <use id="Black" stroke="none" fill="#000000" fill-rule="evenodd" xlink:href="#path-3"></use>
                    </g>
                </g>
            </g>
        </g>
    </g>
</svg>